<svg xmlns="http://www.w3.org/2000/svg" xml:space="preserve" width="100" height="100" version="1.0"><svg xmlns="http://www.w3.org/2000/svg" width="100" height="100" shape-rendering="crispEdges" viewBox="0 0 2000 2000"><path fill="#fff" d="M0 0h2000v2000H0z"/><path d="M686 173h57v57h-57zM800 173h57v57h-57zM857 173h57v57h-57zM971 173h57v57h-57zM1028 173h57v57h-57zM1085 173h57v57h-57zM629 230h57v57h-57zM971 230h57v57h-57zM1028 230h57v57h-57zM1142 230h57v57h-57zM1256 230h57v57h-57zM800 287h57v57h-57zM914 287h57v57h-57zM971 287h57v57h-57zM1085 287h57v57h-57zM1256 287h57v57h-57zM1313 287h57v57h-57zM629 344h57v57h-57zM743 344h57v57h-57zM914 344h57v57h-57zM971 344h57v57h-57zM1028 344h57v57h-57zM1313 344h57v57h-57zM686 401h57v57h-57zM743 401h57v57h-57zM971 401h57v57h-57zM1085 401h57v57h-57zM1199 401h57v57h-57zM1256 401h57v57h-57zM1313 401h57v57h-57zM629 458h57v57h-57zM686 458h57v57h-57zM857 458h57v57h-57zM914 458h57v57h-57zM971 458h57v57h-57zM1142 458h57v57h-57zM629 515h57v57h-57zM743 515h57v57h-57zM857 515h57v57h-57zM971 515h57v57h-57zM1085 515h57v57h-57zM1199 515h57v57h-57zM1313 515h57v57h-57zM686 572h57v57h-57zM800 572h57v57h-57zM971 572h57v57h-57zM1085 572h57v57h-57zM1142 572h57v57h-57zM1199 572h57v57h-57zM1256 572h57v57h-57zM1313 572h57v57h-57zM173 629h57v57h-57zM230 629h57v57h-57zM287 629h57v57h-57zM344 629h57v57h-57zM401 629h57v57h-57zM515 629h57v57h-57zM572 629h57v57h-57zM629 629h57v57h-57zM686 629h57v57h-57zM857 629h57v57h-57zM971 629h57v57h-57zM1028 629h57v57h-57zM1085 629h57v57h-57zM1199 629h57v57h-57zM1370 629h57v57h-57zM1484 629h57v57h-57zM1598 629h57v57h-57zM1712 629h57v57h-57zM344 686h57v57h-57zM458 686h57v57h-57zM800 686h57v57h-57zM857 686h57v57h-57zM1028 686h57v57h-57zM1199 686h57v57h-57zM1256 686h57v57h-57zM1313 686h57v57h-57zM1598 686h57v57h-57zM1712 686h57v57h-57zM230 743h57v57h-57zM287 743h57v57h-57zM344 743h57v57h-57zM401 743h57v57h-57zM515 743h57v57h-57zM572 743h57v57h-57zM629 743h57v57h-57zM743 743h57v57h-57zM914 743h57v57h-57zM971 743h57v57h-57zM1142 743h57v57h-57zM1256 743h57v57h-57zM1598 743h57v57h-57zM1655 743h57v57h-57zM173 800h57v57h-57zM230 800h57v57h-57zM287 800h57v57h-57zM401 800h57v57h-57zM572 800h57v57h-57zM629 800h57v57h-57zM800 800h57v57h-57zM971 800h57v57h-57zM1085 800h57v57h-57zM1256 800h57v57h-57zM1370 800h57v57h-57zM1427 800h57v57h-57zM1484 800h57v57h-57zM1541 800h57v57h-57zM1598 800h57v57h-57zM1769 800h57v57h-57zM173 857h57v57h-57zM230 857h57v57h-57zM287 857h57v57h-57zM344 857h57v57h-57zM401 857h57v57h-57zM458 857h57v57h-57zM515 857h57v57h-57zM686 857h57v57h-57zM743 857h57v57h-57zM914 857h57v57h-57zM1028 857h57v57h-57zM1313 857h57v57h-57zM1370 857h57v57h-57zM173 914h57v57h-57zM401 914h57v57h-57zM458 914h57v57h-57zM572 914h57v57h-57zM629 914h57v57h-57zM800 914h57v57h-57zM1028 914h57v57h-57zM1085 914h57v57h-57zM1256 914h57v57h-57zM1313 914h57v57h-57zM1427 914h57v57h-57zM1541 914h57v57h-57zM1598 914h57v57h-57zM1712 914h57v57h-57zM173 971h57v57h-57zM230 971h57v57h-57zM344 971h57v57h-57zM401 971h57v57h-57zM458 971h57v57h-57zM515 971h57v57h-57zM572 971h57v57h-57zM629 971h57v57h-57zM743 971h57v57h-57zM800 971h57v57h-57zM857 971h57v57h-57zM914 971h57v57h-57zM971 971h57v57h-57zM1142 971h57v57h-57zM1313 971h57v57h-57zM1484 971h57v57h-57zM1598 971h57v57h-57zM1655 971h57v57h-57zM1712 971h57v57h-57zM1769 971h57v57h-57zM458 1028h57v57h-57zM629 1028h57v57h-57zM686 1028h57v57h-57zM800 1028h57v57h-57zM914 1028h57v57h-57zM1085 1028h57v57h-57zM1199 1028h57v57h-57zM1256 1028h57v57h-57zM1370 1028h57v57h-57zM1427 1028h57v57h-57zM1484 1028h57v57h-57zM1541 1028h57v57h-57zM1712 1028h57v57h-57zM1769 1028h57v57h-57zM173 1085h57v57h-57zM287 1085h57v57h-57zM344 1085h57v57h-57zM515 1085h57v57h-57zM572 1085h57v57h-57zM629 1085h57v57h-57zM686 1085h57v57h-57zM743 1085h57v57h-57zM857 1085h57v57h-57zM1028 1085h57v57h-57zM1142 1085h57v57h-57zM1199 1085h57v57h-57zM1370 1085h57v57h-57zM173 1142h57v57h-57zM230 1142h57v57h-57zM401 1142h57v57h-57zM458 1142h57v57h-57zM572 1142h57v57h-57zM629 1142h57v57h-57zM686 1142h57v57h-57zM971 1142h57v57h-57zM1085 1142h57v57h-57zM1199 1142h57v57h-57zM1256 1142h57v57h-57zM1598 1142h57v57h-57zM1712 1142h57v57h-57zM1769 1142h57v57h-57zM173 1199h57v57h-57zM344 1199h57v57h-57zM458 1199h57v57h-57zM515 1199h57v57h-57zM572 1199h57v57h-57zM743 1199h57v57h-57zM800 1199h57v57h-57zM857 1199h57v57h-57zM914 1199h57v57h-57zM971 1199h57v57h-57zM1142 1199h57v57h-57zM1199 1199h57v57h-57zM1313 1199h57v57h-57zM1598 1199h57v57h-57zM1655 1199h57v57h-57zM1712 1199h57v57h-57zM173 1256h57v57h-57zM287 1256h57v57h-57zM344 1256h57v57h-57zM401 1256h57v57h-57zM572 1256h57v57h-57zM629 1256h57v57h-57zM686 1256h57v57h-57zM743 1256h57v57h-57zM800 1256h57v57h-57zM971 1256h57v57h-57zM1085 1256h57v57h-57zM1142 1256h57v57h-57zM1199 1256h57v57h-57zM1256 1256h57v57h-57zM1427 1256h57v57h-57zM1484 1256h57v57h-57zM1541 1256h57v57h-57zM1769 1256h57v57h-57zM173 1313h57v57h-57zM458 1313h57v57h-57zM515 1313h57v57h-57zM572 1313h57v57h-57zM629 1313h57v57h-57zM686 1313h57v57h-57zM857 1313h57v57h-57zM1028 1313h57v57h-57zM1085 1313h57v57h-57zM1142 1313h57v57h-57zM1313 1313h57v57h-57zM1370 1313h57v57h-57zM1427 1313h57v57h-57zM1484 1313h57v57h-57zM1541 1313h57v57h-57zM1598 1313h57v57h-57zM1655 1313h57v57h-57zM1712 1313h57v57h-57zM629 1370h57v57h-57zM686 1370h57v57h-57zM857 1370h57v57h-57zM1085 1370h57v57h-57zM1199 1370h57v57h-57zM1256 1370h57v57h-57zM1313 1370h57v57h-57zM1541 1370h57v57h-57zM1712 1370h57v57h-57zM629 1427h57v57h-57zM686 1427h57v57h-57zM971 1427h57v57h-57zM1142 1427h57v57h-57zM1256 1427h57v57h-57zM1313 1427h57v57h-57zM1427 1427h57v57h-57zM1541 1427h57v57h-57zM1598 1427h57v57h-57zM1655 1427h57v57h-57zM686 1484h57v57h-57zM800 1484h57v57h-57zM914 1484h57v57h-57zM971 1484h57v57h-57zM1085 1484h57v57h-57zM1142 1484h57v57h-57zM1199 1484h57v57h-57zM1256 1484h57v57h-57zM1313 1484h57v57h-57zM1541 1484h57v57h-57zM1655 1484h57v57h-57zM1712 1484h57v57h-57zM1769 1484h57v57h-57zM629 1541h57v57h-57zM686 1541h57v57h-57zM743 1541h57v57h-57zM857 1541h57v57h-57zM914 1541h57v57h-57zM971 1541h57v57h-57zM1028 1541h57v57h-57zM1085 1541h57v57h-57zM1199 1541h57v57h-57zM1256 1541h57v57h-57zM1313 1541h57v57h-57zM1370 1541h57v57h-57zM1427 1541h57v57h-57zM1484 1541h57v57h-57zM1541 1541h57v57h-57zM1655 1541h57v57h-57zM1712 1541h57v57h-57zM1769 1541h57v57h-57zM629 1598h57v57h-57zM686 1598h57v57h-57zM857 1598h57v57h-57zM971 1598h57v57h-57zM1085 1598h57v57h-57zM1313 1598h57v57h-57zM1370 1598h57v57h-57zM1484 1598h57v57h-57zM629 1655h57v57h-57zM800 1655h57v57h-57zM914 1655h57v57h-57zM971 1655h57v57h-57zM1142 1655h57v57h-57zM1256 1655h57v57h-57zM1370 1655h57v57h-57zM1427 1655h57v57h-57zM1484 1655h57v57h-57zM1655 1655h57v57h-57zM1712 1655h57v57h-57zM629 1712h57v57h-57zM686 1712h57v57h-57zM743 1712h57v57h-57zM800 1712h57v57h-57zM1142 1712h57v57h-57zM1199 1712h57v57h-57zM1598 1712h57v57h-57zM1655 1712h57v57h-57zM1769 1712h57v57h-57zM629 1769h57v57h-57zM971 1769h57v57h-57zM1028 1769h57v57h-57zM1085 1769h57v57h-57zM1142 1769h57v57h-57zM1256 1769h57v57h-57zM1370 1769h57v57h-57zM1427 1769h57v57h-57zM1541 1769h57v57h-57zM1598 1769h57v57h-57zM1655 1769h57v57h-57z"/><svg xml:space="preserve" width="399" height="399" x="173" y="173" shape-rendering="auto" viewBox="0 0 699.988 699.986"><path d="M600.99 0H1v699.986h699.988V0zm0 199.996v399.992H100.999V99.998H600.99z"/></svg><svg xml:space="preserve" width="399" height="399" x="173" y="173" shape-rendering="auto" version="1.0" viewBox="0 0 699.988 699.988"><path d="M399.994 199.997H199.998v299.994H499.99V199.997z"/></svg><svg xml:space="preserve" width="399" height="399" x="1427" y="173" shape-rendering="auto" viewBox="0 0 699.988 699.986"><path d="M600.99 0H1v699.986h699.988V0zm0 199.996v399.992H100.999V99.998H600.99z"/></svg><svg xml:space="preserve" width="399" height="399" x="1427" y="173" shape-rendering="auto" version="1.0" viewBox="0 0 699.988 699.988"><path d="M399.994 199.997H199.998v299.994H499.99V199.997z"/></svg><svg xml:space="preserve" width="399" height="399" x="173" y="1427" shape-rendering="auto" viewBox="0 0 699.988 699.986"><path d="M600.99 0H1v699.986h699.988V0zm0 199.996v399.992H100.999V99.998H600.99z"/></svg><svg xml:space="preserve" width="399" height="399" x="173" y="1427" shape-rendering="auto" version="1.0" viewBox="0 0 699.988 699.988"><path d="M399.994 199.997H199.998v299.994H499.99V199.997z"/></svg></svg></svg>